<mxfile host="app.diagrams.net" modified="2024-05-08T06:36:05.330Z" agent="Mozilla/5.0 (Windows NT 10.0; Win64; x64) AppleWebKit/537.36 (KHTML, like Gecko) Chrome/124.0.0.0 Safari/537.36" etag="vn5LfTOggBXTmw4FYgT3" version="24.3.1" type="device">
  <diagram name="Page-1" id="2cc2dc42-3aac-f2a9-1cec-7a8b7cbee084">
    <mxGraphModel dx="3788" dy="2472" grid="1" gridSize="10" guides="1" tooltips="1" connect="1" arrows="1" fold="1" page="1" pageScale="1" pageWidth="1100" pageHeight="850" background="none" math="0" shadow="0">
      <root>
        <mxCell id="0" />
        <mxCell id="1" parent="0" />
        <mxCell id="7026571954dc6520-1" value="" style="strokeWidth=1;shadow=0;dashed=0;align=left;html=1;shape=mxgraph.mockup.containers.browserWindow;rSize=0;strokeColor=#666666;mainText=,;recursiveResize=0;rounded=0;labelBackgroundColor=none;fontFamily=Verdana;fontSize=12" parent="1" vertex="1">
          <mxGeometry x="30" y="15" width="1050" height="820" as="geometry" />
        </mxCell>
        <mxCell id="7026571954dc6520-2" value="Page 1" style="strokeWidth=1;shadow=0;dashed=0;align=center;html=1;shape=mxgraph.mockup.containers.anchor;fontSize=17;fontColor=#666666;align=left;" parent="7026571954dc6520-1" vertex="1">
          <mxGeometry x="60" y="12" width="110" height="26" as="geometry" />
        </mxCell>
        <mxCell id="7026571954dc6520-3" value="https://www.default.com" style="strokeWidth=1;shadow=0;dashed=0;align=center;html=1;shape=mxgraph.mockup.containers.anchor;rSize=0;fontSize=17;fontColor=#666666;align=left;" parent="7026571954dc6520-1" vertex="1">
          <mxGeometry x="130" y="60" width="250" height="26" as="geometry" />
        </mxCell>
        <mxCell id="7026571954dc6520-4" value="Website Name" style="text;html=1;points=[];align=left;verticalAlign=top;spacingTop=-4;fontSize=30;fontFamily=Verdana" parent="7026571954dc6520-1" vertex="1">
          <mxGeometry x="30" y="140" width="340" height="50" as="geometry" />
        </mxCell>
        <mxCell id="7026571954dc6520-6" value="Introduction" style="text;html=1;points=[];align=left;verticalAlign=top;spacingTop=-4;fontSize=15;fontFamily=Verdana" parent="7026571954dc6520-1" vertex="1">
          <mxGeometry x="540" y="140" width="490" height="30" as="geometry" />
        </mxCell>
        <mxCell id="7026571954dc6520-7" value="&lt;div&gt;&lt;span style=&quot;font-family: Helvetica;&quot;&gt;Lorem ipsum dolor sit amet, consectetur adipisicing elit, sed do eiusmod tempor incididunt ut labore et dolore magna aliqua. Ut enim ad minim veniam, quis nostrud exercitation ullamco laboris nisi ut aliquip ex ea commodo consequat. Duis aute irure dolor in reprehenderit in voluptate velit esse cillum dolore eu fugiat nulla pariatur. Excepteur sint occaecat cupidatat non proident, sunt in culpa qui officia deserunt mollit anim id est laborum.&lt;/span&gt;&lt;span&gt;&lt;br&gt;&lt;/span&gt;&lt;/div&gt;" style="text;html=1;points=[];align=left;verticalAlign=top;spacingTop=-4;fontSize=12;fontFamily=Verdana;whiteSpace=wrap;" parent="7026571954dc6520-1" vertex="1">
          <mxGeometry x="540" y="170" width="480" height="90" as="geometry" />
        </mxCell>
        <mxCell id="7026571954dc6520-15" value="" style="verticalLabelPosition=bottom;shadow=0;dashed=0;align=center;html=1;verticalAlign=top;strokeWidth=1;shape=mxgraph.mockup.markup.line;strokeColor=#999999;rounded=0;labelBackgroundColor=none;fillColor=#ffffff;fontFamily=Verdana;fontSize=12;fontColor=#000000;" parent="7026571954dc6520-1" vertex="1">
          <mxGeometry y="310" width="1050" height="20" as="geometry" />
        </mxCell>
        <mxCell id="7026571954dc6520-16" value="Description&amp;nbsp;" style="text;html=1;points=[];align=left;verticalAlign=top;spacingTop=-4;fontSize=15;fontFamily=Verdana" parent="7026571954dc6520-1" vertex="1">
          <mxGeometry x="20" y="330" width="170" height="30" as="geometry" />
        </mxCell>
        <mxCell id="7026571954dc6520-17" value="Lorem ipsum dolor sit amet, consectetur adipisicing elit, sed do eiusmod tempor incididunt ut labore et dolore magna aliqua. Ut enim ad minim veniam, quis nostrud exercitation ullamco laboris nisi ut aliquip ex ea commodo consequat. Duis aute irure dolor in reprehenderit in voluptate velit esse cillum dolore eu fugiat nulla pariatur. Excepteur sint occaecat cupidatat non proident, sunt in culpa qui officia deserunt mollit anim id est laborum.&#xa;Sed ut perspiciatis unde omnis iste natus error sit voluptatem accusantium doloremque laudantium, totam rem aperiam, eaque ipsa quae ab illo inventore veritatis et quasi architecto beatae vitae dicta sunt explicabo. Nemo enim ipsam voluptatem quia voluptas sit aspernatur aut odit aut fugit, sed quia consequuntur magni dolores eos qui ratione voluptatem sequi nesciunt. Neque porro quisquam est, qui dolorem ipsum quia dolor sit amet, consectetur, adipisci velit, sed quia non numquam eius modi tempora incidunt ut labore et dolore magnam aliquam quaerat voluptatem. Ut enim ad minima veniam, quis nostrum exercitationem ullam corporis suscipit laboriosam, nisi ut aliquid ex ea commodi consequatur? Quis autem vel eum iure reprehenderit qui in ea voluptate velit esse quam nihil molestiae consequatur, vel illum qui dolorem eum fugiat quo voluptas nulla pariatur?" style="text;spacingTop=-5;whiteSpace=wrap;html=1;align=left;fontSize=12;fontFamily=Helvetica;fillColor=none;strokeColor=none;rounded=0;shadow=1;labelBackgroundColor=none;" parent="7026571954dc6520-1" vertex="1">
          <mxGeometry x="20" y="370" width="570" height="240" as="geometry" />
        </mxCell>
        <mxCell id="v3MC3DHUTLvpbylcon5c-2" value="Documentation 1" style="strokeWidth=1;shadow=0;dashed=0;align=center;html=1;shape=mxgraph.mockup.buttons.button;strokeColor=#666666;mainText=;buttonStyle=round;fontSize=17;fontStyle=0;fillColor=none;whiteSpace=wrap;rounded=0;labelBackgroundColor=none;" vertex="1" parent="7026571954dc6520-1">
          <mxGeometry x="560" y="280" width="170" height="30" as="geometry" />
        </mxCell>
        <mxCell id="v3MC3DHUTLvpbylcon5c-3" value="Game Button" style="strokeWidth=1;shadow=0;dashed=0;align=center;html=1;shape=mxgraph.mockup.buttons.button;strokeColor=#666666;mainText=;buttonStyle=round;fontSize=17;fontStyle=0;fillColor=none;whiteSpace=wrap;rounded=0;labelBackgroundColor=none;" vertex="1" parent="7026571954dc6520-1">
          <mxGeometry x="250" y="280" width="190" height="30" as="geometry" />
        </mxCell>
        <mxCell id="v3MC3DHUTLvpbylcon5c-4" value="Glimpse / Trailer for Game" style="rounded=0;whiteSpace=wrap;html=1;" vertex="1" parent="7026571954dc6520-1">
          <mxGeometry x="620" y="360" width="410" height="210" as="geometry" />
        </mxCell>
        <mxCell id="v3MC3DHUTLvpbylcon5c-5" value="Glimpse / Advertisment for Booking Resort" style="rounded=0;whiteSpace=wrap;html=1;" vertex="1" parent="7026571954dc6520-1">
          <mxGeometry x="20" y="590" width="1010" height="210" as="geometry" />
        </mxCell>
        <mxCell id="v3MC3DHUTLvpbylcon5c-6" value="Documentation 2" style="strokeWidth=1;shadow=0;dashed=0;align=center;html=1;shape=mxgraph.mockup.buttons.button;strokeColor=#666666;mainText=;buttonStyle=round;fontSize=17;fontStyle=0;fillColor=none;whiteSpace=wrap;rounded=0;labelBackgroundColor=none;" vertex="1" parent="7026571954dc6520-1">
          <mxGeometry x="810" y="280" width="160" height="30" as="geometry" />
        </mxCell>
        <mxCell id="v3MC3DHUTLvpbylcon5c-7" value="Booking Button" style="strokeWidth=1;shadow=0;dashed=0;align=center;html=1;shape=mxgraph.mockup.buttons.button;strokeColor=#666666;mainText=;buttonStyle=round;fontSize=17;fontStyle=0;fillColor=none;whiteSpace=wrap;rounded=0;labelBackgroundColor=none;" vertex="1" parent="7026571954dc6520-1">
          <mxGeometry x="20" y="280" width="190" height="30" as="geometry" />
        </mxCell>
        <mxCell id="v3MC3DHUTLvpbylcon5c-8" value="&lt;span style=&quot;font-family: Verdana;&quot;&gt;Some default text to fill some space, and&amp;nbsp;&lt;/span&gt;&lt;span style=&quot;font-family: Verdana;&quot;&gt;something more so there is more text&lt;/span&gt;" style="text;html=1;align=left;verticalAlign=middle;whiteSpace=wrap;rounded=0;" vertex="1" parent="7026571954dc6520-1">
          <mxGeometry x="30" y="190" width="230" height="30" as="geometry" />
        </mxCell>
        <mxCell id="v3MC3DHUTLvpbylcon5c-14" value="" style="strokeWidth=1;shadow=0;dashed=0;align=left;html=1;shape=mxgraph.mockup.containers.browserWindow;rSize=0;strokeColor=#666666;mainText=,;recursiveResize=0;rounded=0;labelBackgroundColor=none;fontFamily=Verdana;fontSize=12" vertex="1" parent="1">
          <mxGeometry x="-120" y="-1080" width="1050" height="820" as="geometry" />
        </mxCell>
        <mxCell id="v3MC3DHUTLvpbylcon5c-15" value="Page 1" style="strokeWidth=1;shadow=0;dashed=0;align=center;html=1;shape=mxgraph.mockup.containers.anchor;fontSize=17;fontColor=#666666;align=left;" vertex="1" parent="v3MC3DHUTLvpbylcon5c-14">
          <mxGeometry x="60" y="12" width="110" height="26" as="geometry" />
        </mxCell>
        <mxCell id="v3MC3DHUTLvpbylcon5c-16" value="https://www.default.com" style="strokeWidth=1;shadow=0;dashed=0;align=center;html=1;shape=mxgraph.mockup.containers.anchor;rSize=0;fontSize=17;fontColor=#666666;align=left;" vertex="1" parent="v3MC3DHUTLvpbylcon5c-14">
          <mxGeometry x="130" y="60" width="250" height="26" as="geometry" />
        </mxCell>
        <mxCell id="v3MC3DHUTLvpbylcon5c-11" style="edgeStyle=orthogonalEdgeStyle;rounded=0;orthogonalLoop=1;jettySize=auto;html=1;fontFamily=Helvetica;fontSize=12;fontColor=default;entryX=1.004;entryY=0.879;entryDx=0;entryDy=0;entryPerimeter=0;" edge="1" parent="1" source="v3MC3DHUTLvpbylcon5c-4" target="v3MC3DHUTLvpbylcon5c-14">
          <mxGeometry relative="1" as="geometry">
            <mxPoint x="760" y="-250" as="targetPoint" />
            <Array as="points">
              <mxPoint x="1240" y="480" />
              <mxPoint x="1240" y="-359" />
            </Array>
          </mxGeometry>
        </mxCell>
        <mxCell id="v3MC3DHUTLvpbylcon5c-10" style="edgeStyle=orthogonalEdgeStyle;rounded=0;orthogonalLoop=1;jettySize=auto;html=1;fontFamily=Helvetica;fontSize=12;fontColor=default;entryX=0.467;entryY=1;entryDx=0;entryDy=0;entryPerimeter=0;" edge="1" parent="1" source="v3MC3DHUTLvpbylcon5c-3" target="v3MC3DHUTLvpbylcon5c-14">
          <mxGeometry relative="1" as="geometry">
            <mxPoint x="375" y="-160" as="targetPoint" />
            <Array as="points">
              <mxPoint x="340" y="-210" />
              <mxPoint x="370" y="-210" />
            </Array>
          </mxGeometry>
        </mxCell>
        <mxCell id="v3MC3DHUTLvpbylcon5c-36" value="" style="strokeWidth=1;shadow=0;dashed=0;align=left;html=1;shape=mxgraph.mockup.containers.browserWindow;rSize=0;strokeColor=#666666;mainText=,;recursiveResize=0;rounded=0;labelBackgroundColor=none;fontFamily=Verdana;fontSize=12" vertex="1" parent="1">
          <mxGeometry x="-1330" y="-100" width="1050" height="820" as="geometry" />
        </mxCell>
        <mxCell id="v3MC3DHUTLvpbylcon5c-37" value="Page 1" style="strokeWidth=1;shadow=0;dashed=0;align=center;html=1;shape=mxgraph.mockup.containers.anchor;fontSize=17;fontColor=#666666;align=left;" vertex="1" parent="v3MC3DHUTLvpbylcon5c-36">
          <mxGeometry x="60" y="12" width="110" height="26" as="geometry" />
        </mxCell>
        <mxCell id="v3MC3DHUTLvpbylcon5c-38" value="https://www.default.com" style="strokeWidth=1;shadow=0;dashed=0;align=center;html=1;shape=mxgraph.mockup.containers.anchor;rSize=0;fontSize=17;fontColor=#666666;align=left;" vertex="1" parent="v3MC3DHUTLvpbylcon5c-36">
          <mxGeometry x="130" y="60" width="250" height="26" as="geometry" />
        </mxCell>
        <mxCell id="v3MC3DHUTLvpbylcon5c-39" value="Piha Holiday Lodge" style="text;html=1;points=[];align=left;verticalAlign=top;spacingTop=-4;fontSize=30;fontFamily=Verdana" vertex="1" parent="v3MC3DHUTLvpbylcon5c-36">
          <mxGeometry x="30" y="140" width="340" height="50" as="geometry" />
        </mxCell>
        <mxCell id="v3MC3DHUTLvpbylcon5c-42" value="" style="verticalLabelPosition=bottom;shadow=0;dashed=0;align=center;html=1;verticalAlign=top;strokeWidth=1;shape=mxgraph.mockup.markup.line;strokeColor=#999999;rounded=0;labelBackgroundColor=none;fillColor=#ffffff;fontFamily=Verdana;fontSize=12;fontColor=#000000;" vertex="1" parent="v3MC3DHUTLvpbylcon5c-36">
          <mxGeometry x="-10" y="240" width="1050" height="20" as="geometry" />
        </mxCell>
        <mxCell id="v3MC3DHUTLvpbylcon5c-52" value="Booking System" style="text;html=1;align=center;verticalAlign=middle;whiteSpace=wrap;rounded=0;fontFamily=Helvetica;fontSize=12;fontColor=default;" vertex="1" parent="v3MC3DHUTLvpbylcon5c-36">
          <mxGeometry x="30" y="190" width="130" height="30" as="geometry" />
        </mxCell>
        <mxCell id="v3MC3DHUTLvpbylcon5c-53" value="Instructions and Navigation details for booking system" style="rounded=0;whiteSpace=wrap;html=1;align=center;verticalAlign=middle;fontFamily=Helvetica;fontSize=12;fontColor=default;fillColor=none;gradientColor=none;" vertex="1" parent="v3MC3DHUTLvpbylcon5c-36">
          <mxGeometry x="30" y="300" width="280" height="440" as="geometry" />
        </mxCell>
        <mxCell id="v3MC3DHUTLvpbylcon5c-57" value="Check-out date" style="fillColor=none;strokeColor=none;html=1;fontSize=11;fontStyle=0;align=left;fontColor=#596780;fontStyle=1;fontSize=11;sketch=1;hachureGap=4;pointerEvents=0;fontFamily=Architects Daughter;fontSource=https%3A%2F%2Ffonts.googleapis.com%2Fcss%3Ffamily%3DArchitects%2BDaughter;rounded=0;verticalAlign=middle;" vertex="1" parent="v3MC3DHUTLvpbylcon5c-36">
          <mxGeometry x="690" y="300" width="240" height="20" as="geometry" />
        </mxCell>
        <mxCell id="v3MC3DHUTLvpbylcon5c-58" value="Date" style="rounded=1;arcSize=9;fillColor=#F7F8F9;align=left;spacingLeft=5;strokeColor=#DEE1E6;html=1;strokeWidth=2;fontColor=#596780;fontSize=12;sketch=1;hachureGap=4;pointerEvents=0;fontFamily=Architects Daughter;fontSource=https%3A%2F%2Ffonts.googleapis.com%2Fcss%3Ffamily%3DArchitects%2BDaughter;verticalAlign=middle;" vertex="1" parent="v3MC3DHUTLvpbylcon5c-36">
          <mxGeometry x="690" y="325" width="150" height="33" as="geometry" />
        </mxCell>
        <mxCell id="v3MC3DHUTLvpbylcon5c-59" value="" style="shape=mxgraph.gmdl.calendar;fillColor=#5A6881;strokeColor=none;sketch=0;hachureGap=4;pointerEvents=0;fontFamily=Architects Daughter;fontSource=https%3A%2F%2Ffonts.googleapis.com%2Fcss%3Ffamily%3DArchitects%2BDaughter;fontSize=20;rounded=0;align=center;verticalAlign=middle;fontColor=default;" vertex="1" parent="v3MC3DHUTLvpbylcon5c-58">
          <mxGeometry x="1" y="0.5" width="18" height="18" relative="1" as="geometry">
            <mxPoint x="-29" y="-9" as="offset" />
          </mxGeometry>
        </mxCell>
        <mxCell id="v3MC3DHUTLvpbylcon5c-55" value="Date" style="rounded=1;arcSize=9;fillColor=#F7F8F9;align=left;spacingLeft=5;strokeColor=#DEE1E6;html=1;strokeWidth=2;fontColor=#596780;fontSize=12;sketch=1;hachureGap=4;pointerEvents=0;fontFamily=Architects Daughter;fontSource=https%3A%2F%2Ffonts.googleapis.com%2Fcss%3Ffamily%3DArchitects%2BDaughter;verticalAlign=middle;" vertex="1" parent="v3MC3DHUTLvpbylcon5c-36">
          <mxGeometry x="405" y="325" width="150" height="33" as="geometry" />
        </mxCell>
        <mxCell id="v3MC3DHUTLvpbylcon5c-56" value="" style="shape=mxgraph.gmdl.calendar;fillColor=#5A6881;strokeColor=none;sketch=0;hachureGap=4;pointerEvents=0;fontFamily=Architects Daughter;fontSource=https%3A%2F%2Ffonts.googleapis.com%2Fcss%3Ffamily%3DArchitects%2BDaughter;fontSize=20;rounded=0;align=center;verticalAlign=middle;fontColor=default;" vertex="1" parent="v3MC3DHUTLvpbylcon5c-55">
          <mxGeometry x="1" y="0.5" width="18" height="18" relative="1" as="geometry">
            <mxPoint x="-29" y="-9" as="offset" />
          </mxGeometry>
        </mxCell>
        <mxCell id="v3MC3DHUTLvpbylcon5c-54" value="Check-in date" style="fillColor=none;strokeColor=none;html=1;fontSize=11;fontStyle=0;align=left;fontColor=#596780;fontStyle=1;fontSize=11;sketch=1;hachureGap=4;pointerEvents=0;fontFamily=Architects Daughter;fontSource=https%3A%2F%2Ffonts.googleapis.com%2Fcss%3Ffamily%3DArchitects%2BDaughter;rounded=0;verticalAlign=middle;" vertex="1" parent="v3MC3DHUTLvpbylcon5c-36">
          <mxGeometry x="405" y="300" width="240" height="20" as="geometry" />
        </mxCell>
        <mxCell id="v3MC3DHUTLvpbylcon5c-61" value="" style="verticalLabelPosition=bottom;shadow=0;dashed=0;align=center;html=1;verticalAlign=top;strokeWidth=1;shape=mxgraph.mockup.misc.map;rounded=0;fontFamily=Helvetica;fontSize=12;fontColor=default;fillColor=none;gradientColor=none;" vertex="1" parent="v3MC3DHUTLvpbylcon5c-36">
          <mxGeometry x="390" y="420" width="540" height="330" as="geometry" />
        </mxCell>
        <mxCell id="v3MC3DHUTLvpbylcon5c-63" value="Capacity" style="html=1;shadow=0;dashed=0;shape=mxgraph.bootstrap.rangeInput;dx=0.78;strokeColor=#9D968E;fillColor=#E3DDD8;fontColor=#777777;whiteSpace=wrap;align=left;verticalAlign=bottom;fontStyle=0;fontSize=14;labelPosition=center;verticalLabelPosition=top;gradientColor=#F4F2EF;gradientDirection=north;rangeStyle=rect;handleStyle=rect;rounded=0;fontFamily=Helvetica;" vertex="1" parent="v3MC3DHUTLvpbylcon5c-36">
          <mxGeometry x="390" y="390" width="220" height="20" as="geometry" />
        </mxCell>
        <mxCell id="v3MC3DHUTLvpbylcon5c-64" value="Search&amp;nbsp;" style="strokeWidth=1;shadow=0;dashed=0;align=center;html=1;shape=mxgraph.mockup.buttons.button;strokeColor=#666666;mainText=;buttonStyle=round;fontSize=17;fontStyle=0;fillColor=none;whiteSpace=wrap;rounded=0;labelBackgroundColor=none;" vertex="1" parent="v3MC3DHUTLvpbylcon5c-36">
          <mxGeometry x="670" y="380" width="190" height="30" as="geometry" />
        </mxCell>
        <mxCell id="v3MC3DHUTLvpbylcon5c-9" style="edgeStyle=orthogonalEdgeStyle;rounded=0;orthogonalLoop=1;jettySize=auto;html=1;fontFamily=Helvetica;fontSize=12;fontColor=default;" edge="1" parent="1" source="v3MC3DHUTLvpbylcon5c-7" target="v3MC3DHUTLvpbylcon5c-36">
          <mxGeometry relative="1" as="geometry">
            <mxPoint x="-280" y="310" as="targetPoint" />
            <Array as="points">
              <mxPoint x="-200" y="310" />
              <mxPoint x="-200" y="310" />
            </Array>
          </mxGeometry>
        </mxCell>
        <mxCell id="v3MC3DHUTLvpbylcon5c-12" style="edgeStyle=orthogonalEdgeStyle;rounded=0;orthogonalLoop=1;jettySize=auto;html=1;fontFamily=Helvetica;fontSize=12;fontColor=default;" edge="1" parent="1" source="v3MC3DHUTLvpbylcon5c-5" target="v3MC3DHUTLvpbylcon5c-36">
          <mxGeometry relative="1" as="geometry">
            <mxPoint x="-270" y="710" as="targetPoint" />
            <Array as="points">
              <mxPoint x="-60" y="710" />
              <mxPoint x="-60" y="395" />
            </Array>
          </mxGeometry>
        </mxCell>
        <mxCell id="v3MC3DHUTLvpbylcon5c-66" value="" style="strokeWidth=1;shadow=0;dashed=0;align=left;html=1;shape=mxgraph.mockup.containers.browserWindow;rSize=0;strokeColor=#666666;mainText=,;recursiveResize=0;rounded=0;labelBackgroundColor=none;fontFamily=Verdana;fontSize=12" vertex="1" parent="1">
          <mxGeometry x="-1340" y="865" width="1050" height="820" as="geometry" />
        </mxCell>
        <mxCell id="v3MC3DHUTLvpbylcon5c-67" value="Page 1" style="strokeWidth=1;shadow=0;dashed=0;align=center;html=1;shape=mxgraph.mockup.containers.anchor;fontSize=17;fontColor=#666666;align=left;" vertex="1" parent="v3MC3DHUTLvpbylcon5c-66">
          <mxGeometry x="60" y="12" width="110" height="26" as="geometry" />
        </mxCell>
        <mxCell id="v3MC3DHUTLvpbylcon5c-68" value="https://www.default.com" style="strokeWidth=1;shadow=0;dashed=0;align=center;html=1;shape=mxgraph.mockup.containers.anchor;rSize=0;fontSize=17;fontColor=#666666;align=left;" vertex="1" parent="v3MC3DHUTLvpbylcon5c-66">
          <mxGeometry x="130" y="60" width="250" height="26" as="geometry" />
        </mxCell>
        <mxCell id="v3MC3DHUTLvpbylcon5c-65" style="edgeStyle=orthogonalEdgeStyle;rounded=0;orthogonalLoop=1;jettySize=auto;html=1;fontFamily=Helvetica;fontSize=12;fontColor=default;entryX=0.395;entryY=-0.013;entryDx=0;entryDy=0;entryPerimeter=0;" edge="1" parent="1" source="v3MC3DHUTLvpbylcon5c-61" target="v3MC3DHUTLvpbylcon5c-66">
          <mxGeometry relative="1" as="geometry">
            <mxPoint x="-920" y="850" as="targetPoint" />
          </mxGeometry>
        </mxCell>
        <mxCell id="v3MC3DHUTLvpbylcon5c-69" value="On Selecting a Lodge" style="edgeLabel;html=1;align=center;verticalAlign=middle;resizable=0;points=[];rounded=0;fontFamily=Helvetica;fontSize=12;fontColor=default;fillColor=none;gradientColor=none;" vertex="1" connectable="0" parent="v3MC3DHUTLvpbylcon5c-65">
          <mxGeometry x="-0.4185" relative="1" as="geometry">
            <mxPoint as="offset" />
          </mxGeometry>
        </mxCell>
      </root>
    </mxGraphModel>
  </diagram>
</mxfile>
